<mxfile host="app.diagrams.net" modified="2022-07-01T14:33:08.984Z" agent="5.0 (Windows NT 10.0; Win64; x64) AppleWebKit/537.36 (KHTML, like Gecko) Chrome/102.0.0.0 Safari/537.36" etag="DEm_BgA0Cf-FAiBF87mS" version="20.0.4" type="github">
  <diagram id="C5RBs43oDa-KdzZeNtuy" name="Page-1">
    <mxGraphModel dx="3160" dy="1904" grid="1" gridSize="10" guides="1" tooltips="1" connect="1" arrows="1" fold="1" page="1" pageScale="1" pageWidth="1169" pageHeight="1654" math="0" shadow="0">
      <root>
        <mxCell id="WIyWlLk6GJQsqaUBKTNV-0" />
        <mxCell id="WIyWlLk6GJQsqaUBKTNV-1" parent="WIyWlLk6GJQsqaUBKTNV-0" />
        <mxCell id="P4bs8LA6eYKE45YwGySw-39" style="edgeStyle=orthogonalEdgeStyle;rounded=0;orthogonalLoop=1;jettySize=auto;html=1;entryX=0.5;entryY=0;entryDx=0;entryDy=0;startArrow=diamond;startFill=0;endArrow=none;endFill=0;" edge="1" parent="WIyWlLk6GJQsqaUBKTNV-1" source="P4bs8LA6eYKE45YwGySw-1" target="P4bs8LA6eYKE45YwGySw-13">
          <mxGeometry relative="1" as="geometry" />
        </mxCell>
        <mxCell id="P4bs8LA6eYKE45YwGySw-1" value="Item" style="swimlane;fontStyle=1;align=center;verticalAlign=top;childLayout=stackLayout;horizontal=1;startSize=26;horizontalStack=0;resizeParent=1;resizeParentMax=0;resizeLast=0;collapsible=1;marginBottom=0;" vertex="1" parent="WIyWlLk6GJQsqaUBKTNV-1">
          <mxGeometry x="480" y="780" width="280" height="420" as="geometry" />
        </mxCell>
        <mxCell id="P4bs8LA6eYKE45YwGySw-2" value="- title: String&#xa;- maker: String&#xa;- description: String&#xa;- status: String&#xa;- borrower: String&#xa;# image: Bitmap&#xa;# image_base64: String&#xa;- id: String" style="text;strokeColor=none;fillColor=none;align=left;verticalAlign=top;spacingLeft=4;spacingRight=4;overflow=hidden;rotatable=0;points=[[0,0.5],[1,0.5]];portConstraint=eastwest;" vertex="1" parent="P4bs8LA6eYKE45YwGySw-1">
          <mxGeometry y="26" width="280" height="134" as="geometry" />
        </mxCell>
        <mxCell id="P4bs8LA6eYKE45YwGySw-3" value="" style="line;strokeWidth=1;fillColor=none;align=left;verticalAlign=middle;spacingTop=-1;spacingLeft=3;spacingRight=3;rotatable=0;labelPosition=right;points=[];portConstraint=eastwest;" vertex="1" parent="P4bs8LA6eYKE45YwGySw-1">
          <mxGeometry y="160" width="280" height="8" as="geometry" />
        </mxCell>
        <mxCell id="P4bs8LA6eYKE45YwGySw-4" value="+ getId(): String &#xa;+ setId()&#xa;+ updateId(String id)&#xa;+ setTitle(String title) &#xa;+ getTitle(): String &#xa;+ setMaker(String maker) &#xa;+ getMaker() : String &#xa;+ setDescription(String description)&#xa;+ getDescription() : String &#xa;+ setDimensions(Dimensions dimensions) &#xa;+ getDimensions(): Dimensions &#xa;+ setStatus(String status) &#xa;+ String getStatus(): String &#xa;+ setBorrower(String borrower) &#xa;+ String getBorrower(): String &#xa;+ addImage(Bitmap new_image)&#xa;+ getImage(): Bitmap " style="text;strokeColor=none;fillColor=none;align=left;verticalAlign=top;spacingLeft=4;spacingRight=4;overflow=hidden;rotatable=0;points=[[0,0.5],[1,0.5]];portConstraint=eastwest;" vertex="1" parent="P4bs8LA6eYKE45YwGySw-1">
          <mxGeometry y="168" width="280" height="252" as="geometry" />
        </mxCell>
        <mxCell id="P4bs8LA6eYKE45YwGySw-30" style="edgeStyle=orthogonalEdgeStyle;rounded=0;orthogonalLoop=1;jettySize=auto;html=1;startArrow=diamond;startFill=0;endArrow=none;endFill=0;" edge="1" parent="WIyWlLk6GJQsqaUBKTNV-1" source="P4bs8LA6eYKE45YwGySw-5" target="P4bs8LA6eYKE45YwGySw-21">
          <mxGeometry relative="1" as="geometry" />
        </mxCell>
        <mxCell id="P4bs8LA6eYKE45YwGySw-42" value="1" style="edgeLabel;html=1;align=center;verticalAlign=middle;resizable=0;points=[];" vertex="1" connectable="0" parent="P4bs8LA6eYKE45YwGySw-30">
          <mxGeometry x="0.8" y="1" relative="1" as="geometry">
            <mxPoint y="-12" as="offset" />
          </mxGeometry>
        </mxCell>
        <mxCell id="P4bs8LA6eYKE45YwGySw-35" style="edgeStyle=orthogonalEdgeStyle;rounded=0;orthogonalLoop=1;jettySize=auto;html=1;startArrow=diamond;startFill=0;endArrow=none;endFill=0;" edge="1" parent="WIyWlLk6GJQsqaUBKTNV-1" source="P4bs8LA6eYKE45YwGySw-5" target="P4bs8LA6eYKE45YwGySw-4">
          <mxGeometry relative="1" as="geometry" />
        </mxCell>
        <mxCell id="P4bs8LA6eYKE45YwGySw-44" value="1" style="edgeLabel;html=1;align=center;verticalAlign=middle;resizable=0;points=[];" vertex="1" connectable="0" parent="P4bs8LA6eYKE45YwGySw-35">
          <mxGeometry x="0.9489" y="3" relative="1" as="geometry">
            <mxPoint y="-11" as="offset" />
          </mxGeometry>
        </mxCell>
        <mxCell id="P4bs8LA6eYKE45YwGySw-40" style="edgeStyle=orthogonalEdgeStyle;rounded=0;orthogonalLoop=1;jettySize=auto;html=1;startArrow=diamond;startFill=0;endArrow=none;endFill=0;" edge="1" parent="WIyWlLk6GJQsqaUBKTNV-1" source="P4bs8LA6eYKE45YwGySw-5" target="P4bs8LA6eYKE45YwGySw-16">
          <mxGeometry relative="1" as="geometry">
            <mxPoint x="170" y="1370" as="targetPoint" />
            <Array as="points">
              <mxPoint x="120" y="1397" />
            </Array>
          </mxGeometry>
        </mxCell>
        <mxCell id="P4bs8LA6eYKE45YwGySw-5" value="AddItemActivity" style="swimlane;fontStyle=1;align=center;verticalAlign=top;childLayout=stackLayout;horizontal=1;startSize=26;horizontalStack=0;resizeParent=1;resizeParentMax=0;resizeLast=0;collapsible=1;marginBottom=0;" vertex="1" parent="WIyWlLk6GJQsqaUBKTNV-1">
          <mxGeometry x="90" y="370" width="160" height="270" as="geometry" />
        </mxCell>
        <mxCell id="P4bs8LA6eYKE45YwGySw-6" value="- title: EditText &#xa;- maker: EditText &#xa;- description: EditText &#xa;- length: EditText &#xa;- width: EditText &#xa;- height: EditText &#xa;- photo: ImageView &#xa;- image: Bitmap &#xa;- REQUEST_CODE: int &#xa;- item_list: ItemList &#xa;- context: Context " style="text;strokeColor=none;fillColor=none;align=left;verticalAlign=top;spacingLeft=4;spacingRight=4;overflow=hidden;rotatable=0;points=[[0,0.5],[1,0.5]];portConstraint=eastwest;" vertex="1" parent="P4bs8LA6eYKE45YwGySw-5">
          <mxGeometry y="26" width="160" height="184" as="geometry" />
        </mxCell>
        <mxCell id="P4bs8LA6eYKE45YwGySw-7" value="" style="line;strokeWidth=1;fillColor=none;align=left;verticalAlign=middle;spacingTop=-1;spacingLeft=3;spacingRight=3;rotatable=0;labelPosition=right;points=[];portConstraint=eastwest;" vertex="1" parent="P4bs8LA6eYKE45YwGySw-5">
          <mxGeometry y="210" width="160" height="8" as="geometry" />
        </mxCell>
        <mxCell id="P4bs8LA6eYKE45YwGySw-8" value="+ saveItem (View view)&#xa;+ addPhoto(View view)&#xa;+ deletePhoto(View view)" style="text;strokeColor=none;fillColor=none;align=left;verticalAlign=top;spacingLeft=4;spacingRight=4;overflow=hidden;rotatable=0;points=[[0,0.5],[1,0.5]];portConstraint=eastwest;" vertex="1" parent="P4bs8LA6eYKE45YwGySw-5">
          <mxGeometry y="218" width="160" height="52" as="geometry" />
        </mxCell>
        <mxCell id="P4bs8LA6eYKE45YwGySw-37" style="edgeStyle=orthogonalEdgeStyle;rounded=0;orthogonalLoop=1;jettySize=auto;html=1;startArrow=diamond;startFill=0;endArrow=none;endFill=0;" edge="1" parent="WIyWlLk6GJQsqaUBKTNV-1" source="P4bs8LA6eYKE45YwGySw-9" target="P4bs8LA6eYKE45YwGySw-4">
          <mxGeometry relative="1" as="geometry" />
        </mxCell>
        <mxCell id="P4bs8LA6eYKE45YwGySw-47" value="1" style="edgeLabel;html=1;align=center;verticalAlign=middle;resizable=0;points=[];" vertex="1" connectable="0" parent="P4bs8LA6eYKE45YwGySw-37">
          <mxGeometry x="0.9556" y="1" relative="1" as="geometry">
            <mxPoint x="7" y="-15" as="offset" />
          </mxGeometry>
        </mxCell>
        <mxCell id="P4bs8LA6eYKE45YwGySw-41" style="edgeStyle=orthogonalEdgeStyle;rounded=0;orthogonalLoop=1;jettySize=auto;html=1;startArrow=diamond;startFill=0;endArrow=none;endFill=0;" edge="1" parent="WIyWlLk6GJQsqaUBKTNV-1" source="P4bs8LA6eYKE45YwGySw-9" target="P4bs8LA6eYKE45YwGySw-16">
          <mxGeometry relative="1" as="geometry">
            <Array as="points">
              <mxPoint x="1050" y="1397" />
            </Array>
          </mxGeometry>
        </mxCell>
        <mxCell id="P4bs8LA6eYKE45YwGySw-52" value="1" style="edgeLabel;html=1;align=center;verticalAlign=middle;resizable=0;points=[];" vertex="1" connectable="0" parent="P4bs8LA6eYKE45YwGySw-41">
          <mxGeometry x="0.971" y="1" relative="1" as="geometry">
            <mxPoint x="2" y="-18" as="offset" />
          </mxGeometry>
        </mxCell>
        <mxCell id="P4bs8LA6eYKE45YwGySw-9" value="EditItemActivity" style="swimlane;fontStyle=1;align=center;verticalAlign=top;childLayout=stackLayout;horizontal=1;startSize=26;horizontalStack=0;resizeParent=1;resizeParentMax=0;resizeLast=0;collapsible=1;marginBottom=0;" vertex="1" parent="WIyWlLk6GJQsqaUBKTNV-1">
          <mxGeometry x="870" y="374" width="230" height="340" as="geometry" />
        </mxCell>
        <mxCell id="P4bs8LA6eYKE45YwGySw-10" value="- item_list: ItemList &#xa;- item: Item &#xa;- context: Context &#xa;- image: Bitmap &#xa;- REQUEST_CODE: int &#xa;- photo: ImageView &#xa;- title: EditText &#xa;- maker: EditText &#xa;- description: EditText &#xa;- length: EditText &#xa;- width: EditText &#xa;- height: EditText &#xa;- borrower: EditText &#xa;- borrower_tv: TextView  &#xa;- status: Switch " style="text;strokeColor=none;fillColor=none;align=left;verticalAlign=top;spacingLeft=4;spacingRight=4;overflow=hidden;rotatable=0;points=[[0,0.5],[1,0.5]];portConstraint=eastwest;" vertex="1" parent="P4bs8LA6eYKE45YwGySw-9">
          <mxGeometry y="26" width="230" height="224" as="geometry" />
        </mxCell>
        <mxCell id="P4bs8LA6eYKE45YwGySw-11" value="" style="line;strokeWidth=1;fillColor=none;align=left;verticalAlign=middle;spacingTop=-1;spacingLeft=3;spacingRight=3;rotatable=0;labelPosition=right;points=[];portConstraint=eastwest;" vertex="1" parent="P4bs8LA6eYKE45YwGySw-9">
          <mxGeometry y="250" width="230" height="8" as="geometry" />
        </mxCell>
        <mxCell id="P4bs8LA6eYKE45YwGySw-12" value="+ addPhoto(View view)&#xa;+ deletePhoto(View view) &#xa;+ deleteItem(View view)&#xa;+  saveItem(View view)&#xa;+ toggleSwitch(View view)&#xa;" style="text;strokeColor=none;fillColor=none;align=left;verticalAlign=top;spacingLeft=4;spacingRight=4;overflow=hidden;rotatable=0;points=[[0,0.5],[1,0.5]];portConstraint=eastwest;" vertex="1" parent="P4bs8LA6eYKE45YwGySw-9">
          <mxGeometry y="258" width="230" height="82" as="geometry" />
        </mxCell>
        <mxCell id="P4bs8LA6eYKE45YwGySw-13" value="Dimensions" style="swimlane;fontStyle=1;align=center;verticalAlign=top;childLayout=stackLayout;horizontal=1;startSize=26;horizontalStack=0;resizeParent=1;resizeParentMax=0;resizeLast=0;collapsible=1;marginBottom=0;" vertex="1" parent="WIyWlLk6GJQsqaUBKTNV-1">
          <mxGeometry x="540" y="1268" width="160" height="170" as="geometry" />
        </mxCell>
        <mxCell id="P4bs8LA6eYKE45YwGySw-14" value=" - length: String &#xa; - width: String &#xa; - height: String " style="text;strokeColor=none;fillColor=none;align=left;verticalAlign=top;spacingLeft=4;spacingRight=4;overflow=hidden;rotatable=0;points=[[0,0.5],[1,0.5]];portConstraint=eastwest;" vertex="1" parent="P4bs8LA6eYKE45YwGySw-13">
          <mxGeometry y="26" width="160" height="54" as="geometry" />
        </mxCell>
        <mxCell id="P4bs8LA6eYKE45YwGySw-15" value="" style="line;strokeWidth=1;fillColor=none;align=left;verticalAlign=middle;spacingTop=-1;spacingLeft=3;spacingRight=3;rotatable=0;labelPosition=right;points=[];portConstraint=eastwest;" vertex="1" parent="P4bs8LA6eYKE45YwGySw-13">
          <mxGeometry y="80" width="160" height="8" as="geometry" />
        </mxCell>
        <mxCell id="P4bs8LA6eYKE45YwGySw-16" value=" + String getLength(): String &#xa; + String getWidth(): String &#xa; + String getHeight(): String &#xa; + String getDimensions(): String &#xa; + setDimensions(String length, String width, String height) " style="text;strokeColor=none;fillColor=none;align=left;verticalAlign=top;spacingLeft=4;spacingRight=4;overflow=hidden;rotatable=0;points=[[0,0.5],[1,0.5]];portConstraint=eastwest;" vertex="1" parent="P4bs8LA6eYKE45YwGySw-13">
          <mxGeometry y="88" width="160" height="82" as="geometry" />
        </mxCell>
        <mxCell id="P4bs8LA6eYKE45YwGySw-33" style="edgeStyle=orthogonalEdgeStyle;rounded=0;orthogonalLoop=1;jettySize=auto;html=1;startArrow=block;startFill=0;endArrow=none;endFill=0;" edge="1" parent="WIyWlLk6GJQsqaUBKTNV-1" source="P4bs8LA6eYKE45YwGySw-17" target="P4bs8LA6eYKE45YwGySw-9">
          <mxGeometry relative="1" as="geometry">
            <Array as="points">
              <mxPoint x="620" y="330" />
              <mxPoint x="985" y="330" />
            </Array>
          </mxGeometry>
        </mxCell>
        <mxCell id="P4bs8LA6eYKE45YwGySw-34" style="edgeStyle=orthogonalEdgeStyle;rounded=0;orthogonalLoop=1;jettySize=auto;html=1;entryX=0.5;entryY=0;entryDx=0;entryDy=0;startArrow=block;startFill=0;endArrow=none;endFill=0;" edge="1" parent="WIyWlLk6GJQsqaUBKTNV-1" source="P4bs8LA6eYKE45YwGySw-17" target="P4bs8LA6eYKE45YwGySw-5">
          <mxGeometry relative="1" as="geometry">
            <Array as="points">
              <mxPoint x="620" y="330" />
              <mxPoint x="170" y="330" />
            </Array>
          </mxGeometry>
        </mxCell>
        <mxCell id="P4bs8LA6eYKE45YwGySw-17" value="AppCompatActivity" style="swimlane;fontStyle=1;align=center;verticalAlign=top;childLayout=stackLayout;horizontal=1;startSize=26;horizontalStack=0;resizeParent=1;resizeParentMax=0;resizeLast=0;collapsible=1;marginBottom=0;" vertex="1" parent="WIyWlLk6GJQsqaUBKTNV-1">
          <mxGeometry x="400" y="110" width="440" height="130" as="geometry" />
        </mxCell>
        <mxCell id="P4bs8LA6eYKE45YwGySw-18" value="+ field: type" style="text;strokeColor=none;fillColor=none;align=left;verticalAlign=top;spacingLeft=4;spacingRight=4;overflow=hidden;rotatable=0;points=[[0,0.5],[1,0.5]];portConstraint=eastwest;" vertex="1" parent="P4bs8LA6eYKE45YwGySw-17">
          <mxGeometry y="26" width="440" height="26" as="geometry" />
        </mxCell>
        <mxCell id="P4bs8LA6eYKE45YwGySw-19" value="" style="line;strokeWidth=1;fillColor=none;align=left;verticalAlign=middle;spacingTop=-1;spacingLeft=3;spacingRight=3;rotatable=0;labelPosition=right;points=[];portConstraint=eastwest;" vertex="1" parent="P4bs8LA6eYKE45YwGySw-17">
          <mxGeometry y="52" width="440" height="8" as="geometry" />
        </mxCell>
        <mxCell id="P4bs8LA6eYKE45YwGySw-20" value="# onCreate(Bundle savedInstanceState)&#xa;ä onActivityResult(int request_code, int result_code, Intent intent)" style="text;strokeColor=none;fillColor=none;align=left;verticalAlign=top;spacingLeft=4;spacingRight=4;overflow=hidden;rotatable=0;points=[[0,0.5],[1,0.5]];portConstraint=eastwest;" vertex="1" parent="P4bs8LA6eYKE45YwGySw-17">
          <mxGeometry y="60" width="440" height="70" as="geometry" />
        </mxCell>
        <mxCell id="P4bs8LA6eYKE45YwGySw-38" style="edgeStyle=orthogonalEdgeStyle;rounded=0;orthogonalLoop=1;jettySize=auto;html=1;startArrow=diamond;startFill=0;endArrow=none;endFill=0;" edge="1" parent="WIyWlLk6GJQsqaUBKTNV-1" source="P4bs8LA6eYKE45YwGySw-21" target="P4bs8LA6eYKE45YwGySw-1">
          <mxGeometry relative="1" as="geometry" />
        </mxCell>
        <mxCell id="P4bs8LA6eYKE45YwGySw-54" value="0..*" style="edgeLabel;html=1;align=center;verticalAlign=middle;resizable=0;points=[];" vertex="1" connectable="0" parent="P4bs8LA6eYKE45YwGySw-38">
          <mxGeometry x="-0.7793" relative="1" as="geometry">
            <mxPoint x="-20" y="119" as="offset" />
          </mxGeometry>
        </mxCell>
        <mxCell id="P4bs8LA6eYKE45YwGySw-55" value="0..*" style="edgeLabel;html=1;align=center;verticalAlign=middle;resizable=0;points=[];" vertex="1" connectable="0" parent="P4bs8LA6eYKE45YwGySw-38">
          <mxGeometry x="-0.8069" y="-1" relative="1" as="geometry">
            <mxPoint x="231" y="-149" as="offset" />
          </mxGeometry>
        </mxCell>
        <mxCell id="P4bs8LA6eYKE45YwGySw-21" value="ItemList " style="swimlane;fontStyle=1;align=center;verticalAlign=top;childLayout=stackLayout;horizontal=1;startSize=26;horizontalStack=0;resizeParent=1;resizeParentMax=0;resizeLast=0;collapsible=1;marginBottom=0;" vertex="1" parent="WIyWlLk6GJQsqaUBKTNV-1">
          <mxGeometry x="510" y="375" width="220" height="260" as="geometry" />
        </mxCell>
        <mxCell id="P4bs8LA6eYKE45YwGySw-22" value="- items: static ArrayList&lt;Item&gt; &#xa;- FILENAME: String" style="text;strokeColor=none;fillColor=none;align=left;verticalAlign=top;spacingLeft=4;spacingRight=4;overflow=hidden;rotatable=0;points=[[0,0.5],[1,0.5]];portConstraint=eastwest;" vertex="1" parent="P4bs8LA6eYKE45YwGySw-21">
          <mxGeometry y="26" width="220" height="44" as="geometry" />
        </mxCell>
        <mxCell id="P4bs8LA6eYKE45YwGySw-23" value="" style="line;strokeWidth=1;fillColor=none;align=left;verticalAlign=middle;spacingTop=-1;spacingLeft=3;spacingRight=3;rotatable=0;labelPosition=right;points=[];portConstraint=eastwest;" vertex="1" parent="P4bs8LA6eYKE45YwGySw-21">
          <mxGeometry y="70" width="220" height="8" as="geometry" />
        </mxCell>
        <mxCell id="P4bs8LA6eYKE45YwGySw-24" value="+ setItems(ArrayList&lt;Item&gt; item_list) &#xa;+ ArrayList&lt;Item&gt; getItems()&#xa;+ addItem(Item item) &#xa;+ deleteItem(Item item)&#xa;+ getItem(int index): Item  &#xa;+ getIndex(Item item): int &#xa;+ getSize(): int &#xa;+ loadItems(Context context) &#xa;+ saveItems(Context context) &#xa;+ filterItemsByStatus(String status): ArrayList&lt;Item&gt; " style="text;strokeColor=none;fillColor=none;align=left;verticalAlign=top;spacingLeft=4;spacingRight=4;overflow=hidden;rotatable=0;points=[[0,0.5],[1,0.5]];portConstraint=eastwest;" vertex="1" parent="P4bs8LA6eYKE45YwGySw-21">
          <mxGeometry y="78" width="220" height="182" as="geometry" />
        </mxCell>
        <mxCell id="P4bs8LA6eYKE45YwGySw-36" style="edgeStyle=orthogonalEdgeStyle;rounded=0;orthogonalLoop=1;jettySize=auto;html=1;startArrow=diamond;startFill=0;endArrow=none;endFill=0;" edge="1" parent="WIyWlLk6GJQsqaUBKTNV-1" source="P4bs8LA6eYKE45YwGySw-10" target="P4bs8LA6eYKE45YwGySw-24">
          <mxGeometry relative="1" as="geometry">
            <Array as="points">
              <mxPoint x="820" y="510" />
              <mxPoint x="820" y="510" />
            </Array>
          </mxGeometry>
        </mxCell>
        <mxCell id="P4bs8LA6eYKE45YwGySw-43" value="1" style="edgeLabel;html=1;align=center;verticalAlign=middle;resizable=0;points=[];" vertex="1" connectable="0" parent="P4bs8LA6eYKE45YwGySw-36">
          <mxGeometry x="0.6714" y="1" relative="1" as="geometry">
            <mxPoint x="-13" y="-13" as="offset" />
          </mxGeometry>
        </mxCell>
        <mxCell id="P4bs8LA6eYKE45YwGySw-50" value="1" style="edgeLabel;html=1;align=center;verticalAlign=middle;resizable=0;points=[];" vertex="1" connectable="0" parent="WIyWlLk6GJQsqaUBKTNV-1">
          <mxGeometry x="471" y="1060" as="geometry">
            <mxPoint x="46" y="322" as="offset" />
          </mxGeometry>
        </mxCell>
        <mxCell id="P4bs8LA6eYKE45YwGySw-56" value="1" style="text;html=1;align=center;verticalAlign=middle;resizable=0;points=[];autosize=1;strokeColor=none;fillColor=none;" vertex="1" parent="WIyWlLk6GJQsqaUBKTNV-1">
          <mxGeometry x="625" y="1238" width="30" height="30" as="geometry" />
        </mxCell>
        <mxCell id="P4bs8LA6eYKE45YwGySw-57" value="0..*" style="text;html=1;align=center;verticalAlign=middle;resizable=0;points=[];autosize=1;strokeColor=none;fillColor=none;" vertex="1" parent="WIyWlLk6GJQsqaUBKTNV-1">
          <mxGeometry x="625" y="1200" width="40" height="30" as="geometry" />
        </mxCell>
        <mxCell id="P4bs8LA6eYKE45YwGySw-58" value="0..*" style="edgeLabel;html=1;align=center;verticalAlign=middle;resizable=0;points=[];" vertex="1" connectable="0" parent="WIyWlLk6GJQsqaUBKTNV-1">
          <mxGeometry x="610" y="659" as="geometry">
            <mxPoint x="-345" y="-167" as="offset" />
          </mxGeometry>
        </mxCell>
        <mxCell id="P4bs8LA6eYKE45YwGySw-59" value="0..*" style="edgeLabel;html=1;align=center;verticalAlign=middle;resizable=0;points=[];" vertex="1" connectable="0" parent="WIyWlLk6GJQsqaUBKTNV-1">
          <mxGeometry x="600" y="650" as="geometry" />
        </mxCell>
        <mxCell id="P4bs8LA6eYKE45YwGySw-60" value="0..*" style="edgeLabel;html=1;align=center;verticalAlign=middle;resizable=0;points=[];" vertex="1" connectable="0" parent="WIyWlLk6GJQsqaUBKTNV-1">
          <mxGeometry x="870" y="520" as="geometry">
            <mxPoint x="-686" y="135" as="offset" />
          </mxGeometry>
        </mxCell>
        <mxCell id="P4bs8LA6eYKE45YwGySw-61" value="0..*" style="edgeLabel;html=1;align=center;verticalAlign=middle;resizable=0;points=[];" vertex="1" connectable="0" parent="WIyWlLk6GJQsqaUBKTNV-1">
          <mxGeometry x="860" y="520" as="geometry">
            <mxPoint x="108" y="206" as="offset" />
          </mxGeometry>
        </mxCell>
        <mxCell id="P4bs8LA6eYKE45YwGySw-62" value="0..*" style="edgeLabel;html=1;align=center;verticalAlign=middle;resizable=0;points=[];" vertex="1" connectable="0" parent="WIyWlLk6GJQsqaUBKTNV-1">
          <mxGeometry x="610" y="660" as="geometry">
            <mxPoint x="430" y="61" as="offset" />
          </mxGeometry>
        </mxCell>
        <mxCell id="P4bs8LA6eYKE45YwGySw-63" value="0..*" style="edgeLabel;html=1;align=center;verticalAlign=middle;resizable=0;points=[];" vertex="1" connectable="0" parent="WIyWlLk6GJQsqaUBKTNV-1">
          <mxGeometry x="620" y="670" as="geometry">
            <mxPoint x="-488" y="-10" as="offset" />
          </mxGeometry>
        </mxCell>
      </root>
    </mxGraphModel>
  </diagram>
</mxfile>
